<mxfile host="app.diagrams.net" modified="2022-10-17T13:07:58.475Z" agent="5.0 (Macintosh; Intel Mac OS X 10_15_7) AppleWebKit/605.1.15 (KHTML, like Gecko) Version/16.0 Safari/605.1.15" etag="Phm42xykEBmy65p0bYO_" version="20.4.0" type="github">
  <diagram id="gkDrMK_C3x4ka8-0iTx1" name="Seite-1">
    <mxGraphModel dx="1186" dy="673" grid="0" gridSize="10" guides="1" tooltips="1" connect="1" arrows="1" fold="1" page="1" pageScale="1" pageWidth="827" pageHeight="1169" math="0" shadow="0">
      <root>
        <mxCell id="0" />
        <mxCell id="1" parent="0" />
        <mxCell id="lK81WPECvldNejqJGFNq-3" value="Bewerten" style="shape=umlFrame;whiteSpace=wrap;html=1;width=130;height=20;boundedLbl=1;verticalAlign=middle;align=left;spacingLeft=5;" parent="1" vertex="1">
          <mxGeometry x="26" y="881" width="780" height="490" as="geometry" />
        </mxCell>
        <mxCell id="lK81WPECvldNejqJGFNq-1" value="Ort auswählen" style="shape=umlFrame;whiteSpace=wrap;html=1;width=130;height=20;boundedLbl=1;verticalAlign=middle;align=left;spacingLeft=5;shadow=1;" parent="1" vertex="1">
          <mxGeometry x="18" y="449" width="780" height="399" as="geometry" />
        </mxCell>
        <mxCell id="hHakHM2wU4puaAJeqPE2-20" value="Auf Website anmelden" style="shape=umlFrame;whiteSpace=wrap;html=1;width=130;height=20;boundedLbl=1;verticalAlign=middle;align=left;spacingLeft=5;" parent="1" vertex="1">
          <mxGeometry x="22" y="6" width="779" height="400" as="geometry" />
        </mxCell>
        <mxCell id="EY5RB-Vur7H8Ce3vqMUg-3" style="edgeStyle=orthogonalEdgeStyle;rounded=0;orthogonalLoop=1;jettySize=auto;html=1;exitX=0.5;exitY=1;exitDx=0;exitDy=0;entryX=0.5;entryY=0;entryDx=0;entryDy=0;" parent="1" source="hHakHM2wU4puaAJeqPE2-10" target="JKkyf9qV2n20shnmv913-4" edge="1">
          <mxGeometry relative="1" as="geometry">
            <mxPoint x="414" y="74" as="targetPoint" />
          </mxGeometry>
        </mxCell>
        <mxCell id="hHakHM2wU4puaAJeqPE2-10" value="" style="ellipse;fillColor=#000000;strokeColor=none;" parent="1" vertex="1">
          <mxGeometry x="408" y="12" width="30" height="30" as="geometry" />
        </mxCell>
        <mxCell id="hHakHM2wU4puaAJeqPE2-11" value="" style="ellipse;html=1;shape=endState;fillColor=strokeColor;" parent="1" vertex="1">
          <mxGeometry x="406" y="1318" width="30" height="30" as="geometry" />
        </mxCell>
        <mxCell id="hHakHM2wU4puaAJeqPE2-12" value="" style="shape=sumEllipse;perimeter=ellipsePerimeter;whiteSpace=wrap;html=1;backgroundOutline=1;" parent="1" vertex="1">
          <mxGeometry x="730" y="690" width="30" height="30" as="geometry" />
        </mxCell>
        <mxCell id="EY5RB-Vur7H8Ce3vqMUg-8" style="edgeStyle=orthogonalEdgeStyle;rounded=0;orthogonalLoop=1;jettySize=auto;html=1;exitX=0.5;exitY=1;exitDx=0;exitDy=0;entryX=0.5;entryY=0;entryDx=0;entryDy=0;" parent="1" source="hHakHM2wU4puaAJeqPE2-15" target="EY5RB-Vur7H8Ce3vqMUg-7" edge="1">
          <mxGeometry relative="1" as="geometry" />
        </mxCell>
        <mxCell id="hHakHM2wU4puaAJeqPE2-15" value="Nutzer meldet sich an&amp;nbsp;" style="html=1;align=center;verticalAlign=top;rounded=1;absoluteArcSize=1;arcSize=10;dashed=0;" parent="1" vertex="1">
          <mxGeometry x="620" y="273" width="140" height="40" as="geometry" />
        </mxCell>
        <mxCell id="EY5RB-Vur7H8Ce3vqMUg-4" style="edgeStyle=orthogonalEdgeStyle;rounded=0;orthogonalLoop=1;jettySize=auto;html=1;exitX=1;exitY=0.5;exitDx=0;exitDy=0;" parent="1" source="hHakHM2wU4puaAJeqPE2-16" target="hHakHM2wU4puaAJeqPE2-15" edge="1">
          <mxGeometry relative="1" as="geometry" />
        </mxCell>
        <mxCell id="EY5RB-Vur7H8Ce3vqMUg-23" value="[Konto vorhanden]" style="edgeLabel;html=1;align=center;verticalAlign=middle;resizable=0;points=[];" parent="EY5RB-Vur7H8Ce3vqMUg-4" vertex="1" connectable="0">
          <mxGeometry x="-0.6021" y="2" relative="1" as="geometry">
            <mxPoint x="13" y="-8" as="offset" />
          </mxGeometry>
        </mxCell>
        <mxCell id="EY5RB-Vur7H8Ce3vqMUg-6" style="edgeStyle=orthogonalEdgeStyle;rounded=0;orthogonalLoop=1;jettySize=auto;html=1;exitX=0;exitY=0.5;exitDx=0;exitDy=0;" parent="1" source="hHakHM2wU4puaAJeqPE2-16" target="EY5RB-Vur7H8Ce3vqMUg-5" edge="1">
          <mxGeometry relative="1" as="geometry" />
        </mxCell>
        <mxCell id="EY5RB-Vur7H8Ce3vqMUg-22" value="[kein Konto vorhanden]" style="edgeLabel;html=1;align=center;verticalAlign=middle;resizable=0;points=[];" parent="EY5RB-Vur7H8Ce3vqMUg-6" vertex="1" connectable="0">
          <mxGeometry x="-0.1508" y="1" relative="1" as="geometry">
            <mxPoint y="-11" as="offset" />
          </mxGeometry>
        </mxCell>
        <mxCell id="hHakHM2wU4puaAJeqPE2-16" value="" style="rhombus;" parent="1" vertex="1">
          <mxGeometry x="406" y="278" width="30" height="30" as="geometry" />
        </mxCell>
        <mxCell id="EY5RB-Vur7H8Ce3vqMUg-20" style="edgeStyle=orthogonalEdgeStyle;rounded=0;orthogonalLoop=1;jettySize=auto;html=1;exitX=0.5;exitY=1;exitDx=0;exitDy=0;entryX=0;entryY=0.5;entryDx=0;entryDy=0;" parent="1" source="EY5RB-Vur7H8Ce3vqMUg-5" target="EY5RB-Vur7H8Ce3vqMUg-17" edge="1">
          <mxGeometry relative="1" as="geometry">
            <Array as="points">
              <mxPoint x="153" y="313" />
              <mxPoint x="153" y="368" />
            </Array>
            <mxPoint x="417" y="441" as="targetPoint" />
          </mxGeometry>
        </mxCell>
        <mxCell id="EY5RB-Vur7H8Ce3vqMUg-5" value="Nutzer Registriert sich" style="html=1;align=center;verticalAlign=top;rounded=1;absoluteArcSize=1;arcSize=10;dashed=0;" parent="1" vertex="1">
          <mxGeometry x="80" y="273" width="140" height="40" as="geometry" />
        </mxCell>
        <mxCell id="EY5RB-Vur7H8Ce3vqMUg-9" style="edgeStyle=orthogonalEdgeStyle;rounded=0;orthogonalLoop=1;jettySize=auto;html=1;exitX=0.5;exitY=1;exitDx=0;exitDy=0;entryX=1;entryY=0.5;entryDx=0;entryDy=0;" parent="1" source="EY5RB-Vur7H8Ce3vqMUg-7" target="EY5RB-Vur7H8Ce3vqMUg-17" edge="1">
          <mxGeometry relative="1" as="geometry">
            <mxPoint x="439" y="441" as="targetPoint" />
            <Array as="points">
              <mxPoint x="690" y="351" />
              <mxPoint x="693" y="351" />
              <mxPoint x="693" y="368" />
            </Array>
          </mxGeometry>
        </mxCell>
        <mxCell id="EY5RB-Vur7H8Ce3vqMUg-16" value="[Anmeldung korrekt]" style="edgeLabel;html=1;align=center;verticalAlign=middle;resizable=0;points=[];" parent="EY5RB-Vur7H8Ce3vqMUg-9" vertex="1" connectable="0">
          <mxGeometry x="-0.0093" y="-2" relative="1" as="geometry">
            <mxPoint x="34" y="-8" as="offset" />
          </mxGeometry>
        </mxCell>
        <mxCell id="EY5RB-Vur7H8Ce3vqMUg-11" style="edgeStyle=orthogonalEdgeStyle;rounded=0;orthogonalLoop=1;jettySize=auto;html=1;exitX=1;exitY=0.5;exitDx=0;exitDy=0;" parent="1" source="EY5RB-Vur7H8Ce3vqMUg-7" edge="1">
          <mxGeometry relative="1" as="geometry">
            <mxPoint x="555" y="291" as="targetPoint" />
            <Array as="points">
              <mxPoint x="705" y="348" />
              <mxPoint x="775" y="348" />
              <mxPoint x="775" y="251" />
              <mxPoint x="555" y="251" />
            </Array>
          </mxGeometry>
        </mxCell>
        <mxCell id="EY5RB-Vur7H8Ce3vqMUg-15" value="[Daten nicht korrekt]" style="edgeLabel;html=1;align=center;verticalAlign=middle;resizable=0;points=[];" parent="EY5RB-Vur7H8Ce3vqMUg-11" vertex="1" connectable="0">
          <mxGeometry x="-0.9388" y="2" relative="1" as="geometry">
            <mxPoint x="41" y="17" as="offset" />
          </mxGeometry>
        </mxCell>
        <mxCell id="EY5RB-Vur7H8Ce3vqMUg-7" value="" style="rhombus;" parent="1" vertex="1">
          <mxGeometry x="675" y="330" width="30" height="30" as="geometry" />
        </mxCell>
        <mxCell id="JKkyf9qV2n20shnmv913-12" style="edgeStyle=orthogonalEdgeStyle;rounded=0;orthogonalLoop=1;jettySize=auto;html=1;exitX=0.5;exitY=1;exitDx=0;exitDy=0;entryX=0.5;entryY=0;entryDx=0;entryDy=0;" edge="1" parent="1" source="EY5RB-Vur7H8Ce3vqMUg-17" target="lK81WPECvldNejqJGFNq-5">
          <mxGeometry relative="1" as="geometry" />
        </mxCell>
        <mxCell id="EY5RB-Vur7H8Ce3vqMUg-17" value="" style="rhombus;" parent="1" vertex="1">
          <mxGeometry x="408" y="353" width="30" height="30" as="geometry" />
        </mxCell>
        <mxCell id="lK81WPECvldNejqJGFNq-7" style="edgeStyle=orthogonalEdgeStyle;rounded=0;orthogonalLoop=1;jettySize=auto;html=1;exitX=0.5;exitY=1;exitDx=0;exitDy=0;entryX=0.5;entryY=0;entryDx=0;entryDy=0;" parent="1" source="lK81WPECvldNejqJGFNq-5" target="lK81WPECvldNejqJGFNq-6" edge="1">
          <mxGeometry relative="1" as="geometry" />
        </mxCell>
        <mxCell id="lK81WPECvldNejqJGFNq-5" value="Karte der Homepage aufrufen" style="html=1;align=center;verticalAlign=top;rounded=1;absoluteArcSize=1;arcSize=10;dashed=0;" parent="1" vertex="1">
          <mxGeometry x="341" y="507" width="164" height="32" as="geometry" />
        </mxCell>
        <mxCell id="lK81WPECvldNejqJGFNq-9" style="edgeStyle=orthogonalEdgeStyle;rounded=0;orthogonalLoop=1;jettySize=auto;html=1;exitX=0.5;exitY=1;exitDx=0;exitDy=0;entryX=0.5;entryY=0;entryDx=0;entryDy=0;" parent="1" source="lK81WPECvldNejqJGFNq-6" target="lK81WPECvldNejqJGFNq-8" edge="1">
          <mxGeometry relative="1" as="geometry" />
        </mxCell>
        <mxCell id="lK81WPECvldNejqJGFNq-6" value="Kontinent auswählen" style="html=1;align=center;verticalAlign=top;rounded=1;absoluteArcSize=1;arcSize=10;dashed=0;" parent="1" vertex="1">
          <mxGeometry x="353" y="571" width="140" height="27" as="geometry" />
        </mxCell>
        <mxCell id="lK81WPECvldNejqJGFNq-11" style="edgeStyle=orthogonalEdgeStyle;rounded=0;orthogonalLoop=1;jettySize=auto;html=1;exitX=0.5;exitY=1;exitDx=0;exitDy=0;entryX=0.5;entryY=0;entryDx=0;entryDy=0;" parent="1" source="lK81WPECvldNejqJGFNq-8" target="lK81WPECvldNejqJGFNq-10" edge="1">
          <mxGeometry relative="1" as="geometry" />
        </mxCell>
        <mxCell id="lK81WPECvldNejqJGFNq-8" value="Spezifischen Ort auf der&lt;br&gt;Karte wählen" style="html=1;align=center;verticalAlign=top;rounded=1;absoluteArcSize=1;arcSize=10;dashed=0;" parent="1" vertex="1">
          <mxGeometry x="353" y="620" width="140" height="40" as="geometry" />
        </mxCell>
        <mxCell id="lK81WPECvldNejqJGFNq-13" value="[möchte Rezensionen nur durchlesen]" style="edgeStyle=orthogonalEdgeStyle;rounded=0;orthogonalLoop=1;jettySize=auto;html=1;exitX=1;exitY=0.5;exitDx=0;exitDy=0;" parent="1" source="lK81WPECvldNejqJGFNq-10" target="lK81WPECvldNejqJGFNq-12" edge="1">
          <mxGeometry x="-0.0815" y="13" relative="1" as="geometry">
            <mxPoint as="offset" />
          </mxGeometry>
        </mxCell>
        <mxCell id="lK81WPECvldNejqJGFNq-14" style="edgeStyle=orthogonalEdgeStyle;rounded=0;orthogonalLoop=1;jettySize=auto;html=1;exitX=0.5;exitY=1;exitDx=0;exitDy=0;" parent="1" source="lK81WPECvldNejqJGFNq-10" target="lK81WPECvldNejqJGFNq-15" edge="1">
          <mxGeometry relative="1" as="geometry">
            <mxPoint x="429" y="752" as="targetPoint" />
          </mxGeometry>
        </mxCell>
        <mxCell id="lK81WPECvldNejqJGFNq-10" value="" style="rhombus;" parent="1" vertex="1">
          <mxGeometry x="406" y="689" width="30" height="30" as="geometry" />
        </mxCell>
        <mxCell id="lK81WPECvldNejqJGFNq-16" style="edgeStyle=orthogonalEdgeStyle;rounded=0;orthogonalLoop=1;jettySize=auto;html=1;exitX=0.5;exitY=1;exitDx=0;exitDy=0;entryX=0.5;entryY=0;entryDx=0;entryDy=0;" parent="1" source="lK81WPECvldNejqJGFNq-12" target="hHakHM2wU4puaAJeqPE2-12" edge="1">
          <mxGeometry relative="1" as="geometry" />
        </mxCell>
        <mxCell id="lK81WPECvldNejqJGFNq-12" value="Ort ansehen und&lt;br&gt;Kommentare durchlesen" style="html=1;align=center;verticalAlign=top;rounded=1;absoluteArcSize=1;arcSize=10;dashed=0;" parent="1" vertex="1">
          <mxGeometry x="652" y="684" width="140" height="40" as="geometry" />
        </mxCell>
        <mxCell id="JKkyf9qV2n20shnmv913-16" style="edgeStyle=orthogonalEdgeStyle;rounded=0;orthogonalLoop=1;jettySize=auto;html=1;exitX=0.5;exitY=1;exitDx=0;exitDy=0;entryX=0.5;entryY=0;entryDx=0;entryDy=0;" edge="1" parent="1" source="lK81WPECvldNejqJGFNq-15" target="JKkyf9qV2n20shnmv913-15">
          <mxGeometry relative="1" as="geometry" />
        </mxCell>
        <mxCell id="lK81WPECvldNejqJGFNq-15" value="Rezension verfassen&amp;nbsp;&lt;br&gt;auswählen&amp;nbsp;" style="html=1;align=center;verticalAlign=top;rounded=1;absoluteArcSize=1;arcSize=10;dashed=0;" parent="1" vertex="1">
          <mxGeometry x="351" y="901" width="140" height="40" as="geometry" />
        </mxCell>
        <mxCell id="lK81WPECvldNejqJGFNq-20" style="edgeStyle=orthogonalEdgeStyle;rounded=0;orthogonalLoop=1;jettySize=auto;html=1;exitX=0.5;exitY=1;exitDx=0;exitDy=0;entryX=0.5;entryY=0;entryDx=0;entryDy=0;" parent="1" source="lK81WPECvldNejqJGFNq-17" target="lK81WPECvldNejqJGFNq-19" edge="1">
          <mxGeometry relative="1" as="geometry" />
        </mxCell>
        <mxCell id="lK81WPECvldNejqJGFNq-17" value="Kommentar verfassen&lt;br&gt;und Erlebnis berichten" style="html=1;align=center;verticalAlign=top;rounded=1;absoluteArcSize=1;arcSize=10;dashed=0;" parent="1" vertex="1">
          <mxGeometry x="351" y="1088" width="140" height="40" as="geometry" />
        </mxCell>
        <mxCell id="lK81WPECvldNejqJGFNq-22" style="edgeStyle=orthogonalEdgeStyle;rounded=0;orthogonalLoop=1;jettySize=auto;html=1;exitX=0.5;exitY=1;exitDx=0;exitDy=0;" parent="1" source="lK81WPECvldNejqJGFNq-19" target="lK81WPECvldNejqJGFNq-21" edge="1">
          <mxGeometry relative="1" as="geometry" />
        </mxCell>
        <mxCell id="lK81WPECvldNejqJGFNq-19" value="Sterne zu unterschiedlichen&lt;br&gt;Kategorien vergeben" style="html=1;align=center;verticalAlign=top;rounded=1;absoluteArcSize=1;arcSize=10;dashed=0;" parent="1" vertex="1">
          <mxGeometry x="340" y="1172" width="162" height="40" as="geometry" />
        </mxCell>
        <mxCell id="lK81WPECvldNejqJGFNq-23" style="edgeStyle=orthogonalEdgeStyle;rounded=0;orthogonalLoop=1;jettySize=auto;html=1;exitX=0.5;exitY=1;exitDx=0;exitDy=0;" parent="1" source="lK81WPECvldNejqJGFNq-21" target="hHakHM2wU4puaAJeqPE2-11" edge="1">
          <mxGeometry relative="1" as="geometry" />
        </mxCell>
        <mxCell id="lK81WPECvldNejqJGFNq-21" value="Rezension veröffentlichen" style="html=1;align=center;verticalAlign=top;rounded=1;absoluteArcSize=1;arcSize=10;dashed=0;" parent="1" vertex="1">
          <mxGeometry x="351" y="1242" width="140" height="40" as="geometry" />
        </mxCell>
        <mxCell id="JKkyf9qV2n20shnmv913-6" style="edgeStyle=orthogonalEdgeStyle;rounded=0;orthogonalLoop=1;jettySize=auto;html=1;exitX=0.5;exitY=1;exitDx=0;exitDy=0;entryX=0.5;entryY=0;entryDx=0;entryDy=0;" edge="1" parent="1" source="JKkyf9qV2n20shnmv913-4" target="JKkyf9qV2n20shnmv913-5">
          <mxGeometry relative="1" as="geometry" />
        </mxCell>
        <mxCell id="JKkyf9qV2n20shnmv913-4" value="Startseite aufrufen" style="html=1;align=center;verticalAlign=top;rounded=1;absoluteArcSize=1;arcSize=10;dashed=0;" vertex="1" parent="1">
          <mxGeometry x="353" y="66" width="140" height="40" as="geometry" />
        </mxCell>
        <mxCell id="JKkyf9qV2n20shnmv913-8" style="edgeStyle=orthogonalEdgeStyle;rounded=0;orthogonalLoop=1;jettySize=auto;html=1;exitX=0.5;exitY=1;exitDx=0;exitDy=0;entryX=0.5;entryY=0;entryDx=0;entryDy=0;" edge="1" parent="1" source="JKkyf9qV2n20shnmv913-5" target="JKkyf9qV2n20shnmv913-7">
          <mxGeometry relative="1" as="geometry" />
        </mxCell>
        <mxCell id="JKkyf9qV2n20shnmv913-5" value="" style="rhombus;" vertex="1" parent="1">
          <mxGeometry x="406" y="130" width="30" height="30" as="geometry" />
        </mxCell>
        <mxCell id="JKkyf9qV2n20shnmv913-9" style="edgeStyle=orthogonalEdgeStyle;rounded=0;orthogonalLoop=1;jettySize=auto;html=1;exitX=0.5;exitY=1;exitDx=0;exitDy=0;entryX=0.5;entryY=0;entryDx=0;entryDy=0;" edge="1" parent="1" source="JKkyf9qV2n20shnmv913-7" target="hHakHM2wU4puaAJeqPE2-16">
          <mxGeometry relative="1" as="geometry" />
        </mxCell>
        <mxCell id="JKkyf9qV2n20shnmv913-7" value="Login-Fenster öffnen" style="html=1;align=center;verticalAlign=top;rounded=1;absoluteArcSize=1;arcSize=10;dashed=0;" vertex="1" parent="1">
          <mxGeometry x="351" y="199" width="140" height="40" as="geometry" />
        </mxCell>
        <mxCell id="JKkyf9qV2n20shnmv913-17" style="edgeStyle=orthogonalEdgeStyle;rounded=0;orthogonalLoop=1;jettySize=auto;html=1;exitX=0.5;exitY=1;exitDx=0;exitDy=0;entryX=0.5;entryY=0;entryDx=0;entryDy=0;" edge="1" parent="1" source="JKkyf9qV2n20shnmv913-15" target="lK81WPECvldNejqJGFNq-17">
          <mxGeometry relative="1" as="geometry" />
        </mxCell>
        <mxCell id="JKkyf9qV2n20shnmv913-18" style="edgeStyle=orthogonalEdgeStyle;rounded=0;orthogonalLoop=1;jettySize=auto;html=1;exitX=0;exitY=0.5;exitDx=0;exitDy=0;entryX=0;entryY=0.5;entryDx=0;entryDy=0;" edge="1" parent="1" source="JKkyf9qV2n20shnmv913-15" target="JKkyf9qV2n20shnmv913-7">
          <mxGeometry relative="1" as="geometry">
            <Array as="points">
              <mxPoint x="57" y="1029" />
              <mxPoint x="57" y="218" />
            </Array>
          </mxGeometry>
        </mxCell>
        <mxCell id="JKkyf9qV2n20shnmv913-15" value="" style="rhombus;" vertex="1" parent="1">
          <mxGeometry x="406" y="1014" width="30" height="30" as="geometry" />
        </mxCell>
      </root>
    </mxGraphModel>
  </diagram>
</mxfile>
